<svg xmlns="http://www.w3.org/2000/svg" width="700" height="176" viewBox="0 0 700 176" preserveAspectRatio="xMidYMid meet" overflow="visible" role="img" aria-label="Terminal style cover, VS Code Light">
  <title>Terminal style cover — VS Code Light</title>
  <desc>A macOS style terminal window in the VS Code Light Modern colour theme, with 1.8em line height. The command whoami is typed at the prompt and outputs felix, with a block cursor waiting on the next prompt line.</desc>
  <defs>
    <linearGradient id="barLight" x1="0" y1="0" x2="1" y2="0">
      <stop offset="0%" stop-color="#FAFAFA"/>
      <stop offset="100%" stop-color="#F0F0F0"/>
    </linearGradient>
  </defs>

  <rect x="-10" y="-10" width="720" height="196" fill="#FFFFFF"/>

  <rect x="20" y="20" width="660" height="136" rx="10" fill="#FFFFFF" stroke="#DCDCDE" stroke-width="1"/>

  <path d="M20 30a10 10 0 0 1 10-10h640a10 10 0 0 1 10 10v28H20z" fill="url(#barLight)"/>
  <line x1="20" y1="58" x2="680" y2="58" stroke="#E4E4E7" stroke-width="1"/>

  <circle cx="44" cy="39" r="6" fill="#FF5F57"/>
  <circle cx="65" cy="39" r="6" fill="#FEBB2E"/>
  <circle cx="86" cy="39" r="6" fill="#28C840"/>
  <text x="350" y="39" font-size="13" fill="#8A8A8A" text-anchor="middle" dominant-baseline="central" style="font-family:'Cascadia Code','Cascadia Mono',Consolas,'Courier New',monospace">felix — zsh</text>

  <g font-size="16" style="font-family:'Cascadia Code','Cascadia Mono',Consolas,'Courier New',monospace">
    <text x="44" y="80" textLength="172.8" lengthAdjust="spacing"><tspan fill="#0550AE">felix@discpu</tspan><tspan fill="#8A8A8A">:</tspan><tspan fill="#006B80">~</tspan><tspan fill="#8A8A8A"> % </tspan></text>
    <text x="226.4" y="80" fill="#3B3B3B">whoami</text>

    <text x="44" y="108.8" fill="#3B3B3B">felix</text>

    <text x="44" y="137.6" textLength="172.8" lengthAdjust="spacing"><tspan fill="#0550AE">felix@discpu</tspan><tspan fill="#8A8A8A">:</tspan><tspan fill="#006B80">~</tspan><tspan fill="#8A8A8A"> % </tspan></text>
  </g>

  <rect x="226.4" y="121.6" width="10" height="18" fill="#3B3B3B">
    <animate attributeName="opacity" values="1;1;0;0" keyTimes="0;0.5;0.5;1" dur="1.1s" repeatCount="indefinite"/>
  </rect>
</svg>
